<svg xmlns="http://www.w3.org/2000/svg" version="1.1" xmlns:xlink="http://www.w3.org/1999/xlink" xmlns:svgjs="http://svgjs.dev/svgjs" width="1000" height="460" preserveAspectRatio="none" viewBox="0 0 1000 460"><g mask="url(&quot;#SvgjsMask1214&quot;)" fill="none"><rect width="1000" height="460" x="0" y="0" fill="url(&quot;#SvgjsLinearGradient1215&quot;)"></rect><path d="M479.818,616.669C521.5,615.087,551.27,580.67,571.234,544.046C590.16,509.325,600.644,467.135,579.567,433.676C559.453,401.745,517.538,397.771,479.818,398.925C444.663,400.001,409.958,410.439,390.11,439.474C367.338,472.785,357.31,515.473,375.536,551.473C395.382,590.674,435.912,618.335,479.818,616.669" fill="rgba(0, 164, 255, 0.68)" class="triangle-float1"></path><path d="M714.763,665.598C763.682,665.166,791.737,615.836,815.93,573.316C839.739,531.47,866.125,483.11,842.444,441.191C818.538,398.874,763.355,393.218,714.763,394.234C668.44,395.202,619.148,406.203,596.003,446.341C572.874,486.451,588.4,534.419,610.452,575.131C633.946,618.507,665.435,666.034,714.763,665.598" fill="rgba(0, 164, 255, 0.68)" class="triangle-float1"></path><path d="M481.113,349.396C496.875,349.782,514.52,349.496,523.285,336.39C532.792,322.175,531.181,302.85,521.81,288.545C513.21,275.417,496.766,270.874,481.113,272.011C467.436,273.005,456.746,282.148,449.513,293.798C441.742,306.314,435.093,321.601,442.372,334.409C449.705,347.311,466.277,349.033,481.113,349.396" fill="rgba(0, 164, 255, 0.68)" class="triangle-float3"></path><path d="M989.781,583.242C1025.255,582.864,1060.345,568.587,1078.114,537.882C1095.911,507.129,1089.778,470.13,1073.523,438.535C1055.436,403.379,1029.285,367.79,989.781,366.192C948.277,364.513,912.814,394.517,893.421,431.25C875.299,465.577,877.345,507.015,898.129,539.799C917.531,570.403,953.547,583.628,989.781,583.242" fill="rgba(0, 164, 255, 0.68)" class="triangle-float3"></path><path d="M735.765,169.631C746.998,169.117,755.584,161.377,761.878,152.059C769.342,141.01,777.496,128.221,771.917,116.11C765.687,102.586,750.602,94.114,735.765,95.374C722.43,96.507,715.025,109.572,708.886,121.464C703.413,132.066,699.348,144.232,705.162,154.651C711.094,165.281,723.605,170.187,735.765,169.631" fill="rgba(0, 164, 255, 0.68)" class="triangle-float3"></path><path d="M49.848,215.954C84.079,217.248,114.38,197.152,133.17,168.51C154.295,136.308,170.648,95.124,150.745,62.152C131.22,29.807,87.608,29.217,49.848,30.477C15.002,31.64,-23.144,38.01,-40.02,68.519C-56.546,98.396,-41.006,133.445,-23.235,162.599C-6.409,190.203,17.543,214.733,49.848,215.954" fill="rgba(0, 164, 255, 0.68)" class="triangle-float3"></path><path d="M382.616,199.747C421.943,197.171,454.367,172.272,474.157,138.19C494.046,103.937,501.868,62.221,482.55,27.642C462.814,-7.684,423.08,-25.914,382.616,-25.665C342.606,-25.418,306.554,-4.715,284.792,28.86C260.688,66.05,245.628,113.256,267.645,151.718C289.76,190.351,338.196,202.657,382.616,199.747" fill="rgba(0, 164, 255, 0.68)" class="triangle-float1"></path><path d="M209.721,462.047C230.449,461.822,249.969,451.6,260.312,433.636C270.635,415.707,269.092,394.022,259.417,375.736C248.993,356.034,232.001,338.688,209.721,338.015C186.471,337.313,165.64,352.127,154.54,372.569C143.929,392.111,145.52,415.829,157.192,434.756C168.293,452.757,188.573,462.277,209.721,462.047" fill="rgba(0, 164, 255, 0.68)" class="triangle-float3"></path><path d="M905.753,189.371C921.429,189.899,935.167,179.187,942.474,165.308C949.305,152.333,946.686,137.385,939.99,124.34C932.502,109.752,922.151,93.799,905.753,93.771C889.328,93.743,878.323,109.368,871.31,124.221C865.393,136.752,866.604,150.719,873.081,162.97C880.095,176.237,890.755,188.866,905.753,189.371" fill="rgba(0, 164, 255, 0.68)" class="triangle-float2"></path><path d="M811.246,289.303C845.85,291.045,875.094,266.125,892.297,236.049C909.365,206.208,912.778,170.304,896.686,139.926C879.52,107.52,847.871,81.182,811.246,83.038C776.764,84.785,754.222,116.611,739.595,147.886C727.375,174.015,730.16,202.812,743.197,228.543C757.928,257.617,778.694,287.664,811.246,289.303" fill="rgba(0, 164, 255, 0.68)" class="triangle-float1"></path><path d="M153.745,245.76C173.49,246.261,194.609,243.799,205.979,227.649C219.02,209.125,223.321,183.445,210.995,164.438C199.367,146.508,175.099,146.271,153.745,147.105C134.314,147.864,113.916,152.05,103.75,168.627C93.192,185.842,94.922,208.164,105.906,225.111C116.031,240.732,135.136,245.288,153.745,245.76" fill="rgba(0, 164, 255, 0.68)" class="triangle-float3"></path></g><defs><mask id="SvgjsMask1214"><rect width="1000" height="460" fill="#ffffff"></rect></mask><linearGradient x1="13.5%" y1="-29.35%" x2="86.5%" y2="129.35%" gradientUnits="userSpaceOnUse" id="SvgjsLinearGradient1215"><stop stop-color="#0e2a47" offset="0"></stop><stop stop-color="rgba(120, 179, 255, 1)" offset="1"></stop></linearGradient><style>
                @keyframes float1 {
                    0%{transform: translate(0, 0)}
                    50%{transform: translate(-10px, 0)}
                    100%{transform: translate(0, 0)}
                }

                .triangle-float1 {
                    animation: float1 5s infinite;
                }

                @keyframes float2 {
                    0%{transform: translate(0, 0)}
                    50%{transform: translate(-5px, -5px)}
                    100%{transform: translate(0, 0)}
                }

                .triangle-float2 {
                    animation: float2 4s infinite;
                }

                @keyframes float3 {
                    0%{transform: translate(0, 0)}
                    50%{transform: translate(0, -10px)}
                    100%{transform: translate(0, 0)}
                }

                .triangle-float3 {
                    animation: float3 6s infinite;
                }
            </style></defs></svg>