<svg id="visual" viewBox="0 0 960 540" width="960" height="540" xmlns="http://www.w3.org/2000/svg" xmlns:xlink="http://www.w3.org/1999/xlink" version="1.1"><rect x="0" y="0" width="960" height="540" fill="#001220"></rect><defs><linearGradient id="grad1_0" x1="43.8%" y1="0%" x2="100%" y2="100%"><stop offset="14.444444444444446%" stop-color="#001220" stop-opacity="1"></stop><stop offset="85.55555555555554%" stop-color="#001220" stop-opacity="1"></stop></linearGradient></defs><defs><linearGradient id="grad2_0" x1="0%" y1="0%" x2="56.3%" y2="100%"><stop offset="14.444444444444446%" stop-color="#001220" stop-opacity="1"></stop><stop offset="85.55555555555554%" stop-color="#001220" stop-opacity="1"></stop></linearGradient></defs><g transform="translate(960, 0)"><path d="M0 540C-20.9 516.8 -41.8 493.6 -64.5 489.8C-87.1 485.9 -111.6 501.3 -135.4 505.2C-159.1 509 -182.3 501.3 -202.8 489.7C-223.4 478 -241.3 462.5 -258.5 447.7C-275.7 433 -292.1 419.1 -314.7 410.2C-337.4 401.3 -366.3 397.4 -378.3 378.3C-390.3 359.2 -385.4 324.9 -395.1 303.2C-404.7 281.4 -428.9 272.2 -445.1 257C-461.4 241.8 -469.7 220.7 -485 200.9C-500.4 181.1 -522.8 162.7 -521.6 139.8C-520.4 116.8 -495.6 89.2 -494.7 65.1C-493.9 41.1 -516.9 20.5 -540 0L0 0Z" fill="#f19721"></path></g><g transform="translate(0, 540)"><path d="M0 -540C22.6 -532.7 45.2 -525.3 68.7 -521.5C92.1 -517.7 116.3 -517.4 135.4 -505.2C154.4 -492.9 168.2 -468.7 192.9 -465.6C217.5 -462.6 252.9 -480.8 270 -467.7C287.1 -454.5 285.8 -409.8 295.9 -385.6C306 -361.3 327.5 -357.4 350 -350C372.6 -342.6 396.1 -331.8 410.2 -314.7C424.2 -297.7 428.8 -274.5 444.3 -256.5C459.7 -238.5 486.1 -225.9 497 -205.9C508 -185.9 503.6 -158.6 500.3 -134.1C497.1 -109.6 494.9 -87.9 501.7 -66C508.5 -44.2 524.2 -22.1 540 0L0 0Z" fill="#f19721"></path></g></svg>